<svg width="512" height="512" viewBox="0 0 512 512" fill="none" xmlns="http://www.w3.org/2000/svg">
<g clip-path="url(#clip0_201_7)">
<rect width="512" height="512" rx="128" fill="#9ECE6A"/>
<path fill-rule="evenodd" clip-rule="evenodd" d="M123.424 84.3086C136.237 67.467 182.866 33.4338 266.877 32.0336C350.888 30.6334 407.397 73.3791 425.15 94.927C426.925 102.123 425.798 116.584 407.088 116.864L335.882 80.9247C318.747 73.3013 280.029 76.0473 262.245 148.019C244.461 219.99 270.196 242.495 285.286 244.751C299.18 248.368 323.471 258.987 309.484 272.522C292.001 289.441 260.161 328.764 288.644 382.79C294.201 396.714 324.675 422.276 402.109 413.128C407.049 417.523 411.21 429.884 388.331 444.166C387.672 444.034 387.005 443.901 386.332 443.767L385.523 443.605C392.097 446.187 397.088 448.458 400.141 450.234L401.646 461.319C401.993 464.508 400.28 471.68 390.647 474.854C387.791 475.795 385.671 476.539 383.971 477.136L383.964 477.139C378.5 479.056 377.365 479.455 370.038 479.988C360.428 480.689 161.168 449.417 133.381 442.416C111.151 436.815 107.523 424.057 108.488 418.379C108.488 414.1 111.382 402.509 122.96 395.975C126.28 396.437 129.76 396.87 133.381 397.283V379.522C118.252 369.876 86.0958 345.077 78.5005 323.047C65.1857 318.768 43.8124 293.992 64.8383 229.115C65.05 226.653 65.3782 223.828 65.8357 220.684C72.6739 208.74 86.8924 189.32 98.5307 187.225C114.74 184.308 141.254 193.759 143.57 202.277C148.587 193.798 144.079 176.887 94.7099 177.073C89.8208 179.651 77.8638 187.381 70.4748 197.356C78.1505 166.06 94.1501 122.615 123.424 84.3086ZM122.382 204.728L144.727 211.729L135.581 241.717C124.744 237.61 119.333 241.95 117.982 244.634C114.084 249.807 105.709 263.677 103.394 277.773C101.078 291.868 115.087 296.248 122.382 296.676L114.393 330.981C76.9722 334.809 68.003 310.95 68.1959 298.543C77.5511 229.185 108.218 207.1 122.382 204.728Z" fill="#15161E"/>
<path fill-rule="evenodd" clip-rule="evenodd" d="M432.907 267.505L431.463 245.448C438.878 240.206 444.332 229.072 444.997 215.927C445.944 197.195 436.808 181.472 424.59 180.808C412.373 180.145 401.701 194.792 400.754 213.524C399.806 232.256 408.943 247.98 421.16 248.643C421.215 248.646 421.271 248.649 421.326 248.651C424.5 253.44 431.168 263.737 432.907 267.505ZM421.422 242.705C431.55 243.255 440.397 231.113 441.182 215.584C441.967 200.055 434.393 187.021 424.265 186.471C416.328 186.04 409.178 193.404 406.078 204.084C406.702 203.912 407.447 203.851 408.23 203.809C414.488 203.479 419.965 210.984 420.464 220.573C420.905 229.06 417.298 236.335 412.124 238.124C414.765 240.854 417.943 242.516 421.422 242.705Z" fill="#15161E"/>
<path d="M440.896 301.46C439.414 300.526 429.858 300.137 425.265 300.06C410.214 300.526 405.814 314.879 405.467 317.329C405.189 319.289 405.351 322.658 405.467 324.097C405.583 333.548 414.035 337.516 421.908 337.982C429.781 338.449 435.57 337.632 442.748 335.999C448.491 334.692 452.165 329.075 453.285 326.431C454.018 324.252 455.369 318.146 454.905 311.145C453.748 304.685 447.182 303.123 443.368 302.216C442.222 301.943 441.324 301.73 440.896 301.46Z" fill="#15161E"/>
<path fill-rule="evenodd" clip-rule="evenodd" d="M348.434 261.082C364.894 262.533 379.771 246.039 381.663 224.242C383.555 202.445 371.746 183.598 355.286 182.147C338.827 180.696 323.949 197.189 322.057 218.986C320.165 240.784 331.974 259.63 348.434 261.082ZM348.73 255.574C362.924 256.825 375.752 242.603 377.384 223.807C379.016 205.01 368.833 188.759 354.639 187.507C342.293 186.419 330.979 197.039 327.169 212.193C329.013 210.209 331.259 209.045 333.682 209.045C339.949 209.045 345.029 216.829 345.029 226.431C345.029 236.033 339.949 243.817 333.682 243.817C332.764 243.817 331.871 243.65 331.015 243.334C335.131 250.274 341.395 254.927 348.73 255.574Z" fill="#15161E"/>
<path d="M316.431 334.599C311.827 341.89 310.296 347.15 310.758 351.285C310.847 352.087 311.554 352.013 312.263 351.635C316.48 349.384 323.269 348.173 333.624 348.602C339.05 348.827 343.74 349.416 348.446 350.007C358.727 351.298 369.081 352.599 387.336 350.13C407.323 347.427 422.248 349.371 428.507 351.168C429.245 351.38 429.916 352.537 429.665 353.268C429.414 353.999 428.089 355.227 427.35 355.018C421.47 353.362 408.117 351.44 388.563 354.085C369.953 356.602 359.857 355.388 349.429 354.085C348.858 354.014 347.891 353.878 346.697 353.709C342.791 353.156 336.457 352.26 333.624 352.218C322.567 351.76 315.046 353.889 311.767 355.919C311.424 356.131 311.754 356.692 312.032 357.166C312.123 357.32 312.208 357.465 312.263 357.586C312.371 357.823 312.491 358.076 312.623 358.341C313.084 359.262 312.785 361.01 311.916 361.553C311.481 361.824 310.051 360.768 309.799 360.32C308.861 358.649 308.287 357.165 308.064 356.443C306.319 352.453 305.693 342.332 312.916 331.527C313.202 331.1 314.624 330.45 315.042 330.748C315.877 331.343 316.98 333.729 316.431 334.599Z" fill="#15161E"/>
</g>
<defs>
<clipPath id="clip0_201_7">
<rect width="512" height="512" fill="white"/>
</clipPath>
</defs>
</svg>
